<?xml version="1.0" encoding="UTF-8"?>
<svg xmlns="http://www.w3.org/2000/svg" xmlns:xlink="http://www.w3.org/1999/xlink" width="435.3pt" height="402.7pt" viewBox="0 0 435.3 402.7" version="1.1">
<defs>
<clipPath id="clip1">
  <path d="M 3 19 L 429 19 L 429 402.699219 L 3 402.699219 Z M 3 19 "/>
</clipPath>
<clipPath id="clip2">
  <path d="M 0 15 L 432 15 L 432 402.699219 L 0 402.699219 Z M 0 15 "/>
</clipPath>
</defs>
<g id="surface1">
<g clip-path="url(#clip1)" clip-rule="nonzero">
<path style=" stroke:none;fill-rule:evenodd;fill:rgb(5.488586%,31.762695%,0.392151%);fill-opacity:1;" d="M 156.757813 370.65625 L 101.210938 351.054688 C 86.554688 361.183594 74.65625 359.621094 65.8125 345.0625 L 32.371094 276.644531 C 24.027344 263.078125 8.125 276.027344 8.632813 249.21875 L 12.441406 180.054688 C 0.046875 169.890625 0.273438 159.726563 11.355469 149.558594 C 20.359375 139.855469 6.167969 134.460938 6.453125 127.230469 C 8 96.351563 10.804688 74.738281 18.433594 60.246094 C 33.269531 36.863281 96.015625 -0.0117188 121.902344 35.742188 C 133.640625 21.21875 165.148438 15.527344 215.121094 21.761719 C 259.0625 15.867188 288.246094 19.789063 305.96875 34.652344 C 328.996094 17.101563 346.71875 21.597656 369.140625 29.203125 C 390.609375 37.078125 406.554688 50.074219 416.039063 69.070313 C 418.351563 88.648438 429.585938 119.976563 413.253906 143.023438 C 429.621094 148.234375 435.324219 174.296875 416.519531 178.964844 L 420.328125 253.574219 C 421.203125 264.953125 411.816406 269.015625 401.816406 269.910156 L 361.515625 346.152344 C 348.59375 368.746094 337.109375 350.03125 326.640625 353.101563 L 273.839844 369.570313 L 260.769531 381.546875 L 236.265625 382.09375 L 214.480469 402.242188 L 195.421875 381.546875 L 167.101563 381.546875 Z M 388.398438 243.671875 L 348.164063 325.464844 C 340.046875 342.65625 343.695313 321.003906 328.898438 326.414063 L 259.824219 349.640625 L 277.09375 312.722656 C 293.335938 303.515625 321.148438 303.210938 330.089844 288.308594 L 361.59375 228.097656 C 365.15625 219.570313 371.921875 229.203125 370.675781 222.816406 L 356.289063 159.6875 C 354.53125 153.453125 371.578125 160.339844 363.4375 151.347656 C 343.597656 134.320313 322.59375 118.164063 300.910156 102.519531 C 293.414063 96.199219 284.648438 95.757813 274.710938 100.734375 L 213.972656 131.699219 L 149.660156 99.539063 C 143.679688 96.824219 138.921875 97.371094 134.773438 99.539063 C 111.039063 115.148438 88.90625 131.820313 69.273438 150.15625 C 63.386719 155.425781 65.539063 160.226563 73.441406 157.898438 L 59.382813 221.460938 C 58.171875 232.660156 65.828125 219.058594 68.082031 226.378906 L 104.40625 297.242188 L 152.039063 310.9375 L 171.035156 351.21875 L 104.40625 327.015625 C 93.414063 323.089844 89.492188 328.03125 85.980469 332.695313 L 41.878906 243.648438 L 30.65625 242.703125 L 38.308594 165.640625 C 28.84375 165.566406 25.910156 161.789063 32.351563 156.703125 L 89.519531 107.285156 C 92.773438 104.53125 94.089844 101.722656 94.878906 97.160156 C 96.660156 76.644531 94.3125 63.136719 79.394531 70.960938 L 55.578125 92.992188 C 51.535156 97.152344 51.035156 102.261719 54.894531 105.664063 C 62.449219 112.121094 68.585938 104.789063 62.121094 101.328125 C 55.015625 98.175781 88.359375 75.433594 85.34375 84.1875 C 74.414063 95.164063 75.871094 107.339844 84.582031 98.601563 C 88.398438 95.285156 90.542969 102.789063 82.371094 106.09375 C 67.917969 113.519531 54.128906 123.890625 40.6875 135.867188 C 35.121094 133.398438 30.789063 129.089844 30.867188 123.550781 L 35.921875 76.320313 C 66.414063 46.320313 91.402344 28.371094 122.269531 66.195313 C 130.40625 59.644531 136.492188 51.296875 146.683594 46.546875 C 162.855469 41.921875 179.429688 41.339844 196.109375 41.78125 C 206.414063 41.71875 209.394531 44.617188 209.203125 50.117188 L 214.742188 106.6875 L 221.117188 49.523438 C 221.8125 44.085938 223.847656 42.492188 227.664063 42.972656 L 282.636719 45.726563 C 291.488281 49.902344 298.449219 57.039063 304.566406 63.210938 C 310.988281 70.117188 318.089844 46.640625 340.214844 45.355469 C 358.054688 44.980469 375.894531 57.871094 393.734375 75.714844 C 397.59375 86.789063 398.039063 105.039063 400.199219 119.710938 C 400.234375 128.566406 393.101563 131.785156 389.039063 137.058594 C 375.054688 124.695313 360.296875 113.109375 344.585938 102.46875 C 338.386719 97.976563 352.203125 101.328125 352.878906 96.21875 C 352.523438 88.476563 343.351563 85.671875 346.609375 83.488281 C 352.695313 80.179688 359.476563 87.828125 365.003906 93.347656 C 375.175781 101.78125 357.226563 102.195313 367.046875 106.929688 C 371.496094 109.191406 372.949219 108.21875 375.898438 105.101563 C 379.414063 101.269531 378.023438 96.808594 372.367188 91.800781 L 351.269531 72.46875 C 342.777344 66.058594 337.367188 67.316406 336.507813 76.421875 L 334.855469 96.566406 C 334.796875 102.382813 337.273438 106.558594 341.402344 109.664063 C 362.203125 123.949219 382.320313 140.496094 401.519531 159.988281 C 406.78125 166.105469 393.132813 160.511719 394.34375 169.480469 L 398.046875 236.003906 C 400.640625 254.371094 394.019531 229.445313 388.398438 243.671875 Z M 189.914063 342.089844 L 208.605469 342.089844 L 215.144531 346.761719 L 222.152344 341.152344 L 239.90625 341.152344 L 271.203125 248.183594 C 273.945313 240.230469 288.507813 252.289063 295.96875 227.628906 L 302.71875 197.570313 C 302.882813 191.546875 312.890625 195.816406 304.550781 186.660156 C 293.945313 174.578125 282.121094 165.863281 269.804688 158.484375 C 286.121094 154.539063 281.453125 145.246094 266.535156 143.066406 C 295.003906 134.894531 305.953125 153.757813 331.007813 182.308594 C 325.996094 166.449219 318.550781 154.445313 307.746094 139.308594 C 302.835938 133.039063 280.496094 128.664063 268.742188 133.703125 L 230.5625 149.605469 L 224.488281 139.328125 L 274.476563 114.566406 C 284.671875 109.324219 294.78125 108.683594 302.507813 115.035156 C 320.820313 135.078125 346.628906 143.1875 354.367188 187.449219 C 361.566406 228.570313 330.695313 255.96875 318.859375 290.230469 L 269.804688 305.179688 L 248.78125 356.570313 L 224.488281 356.105469 L 214.210938 365.914063 L 205.800781 355.636719 L 181.039063 355.636719 L 160.015625 305.648438 L 111.429688 290.230469 C 99.402344 257.722656 72.296875 230.019531 75.34375 192.703125 C 78.179688 151.660156 123.574219 111.515625 139.460938 110.363281 C 156.339844 110.015625 182.597656 130.882813 204.867188 140.261719 L 200.195313 150.539063 L 166.558594 135.121094 C 154.101563 129.734375 141.640625 130.980469 129.183594 135.589844 C 123.632813 137.363281 104.988281 165.152344 99.285156 180.441406 C 117.691406 166.695313 129.414063 133.371094 160.484375 143.066406 C 148.113281 146.953125 148.085938 155.378906 159.550781 158.484375 C 146.882813 167.757813 134.992188 177.699219 124.511719 188.851563 C 119.300781 194.410156 127.550781 192.519531 128.210938 198.21875 L 136.191406 234.164063 C 141.054688 251.609375 156.738281 241.191406 159.363281 249.925781 Z M 196.226563 158.570313 L 176.03125 193.578125 C 174.226563 196.546875 173.664063 199.746094 176.367188 204.011719 L 185.117188 218.824219 C 187.453125 221.683594 191.226563 217.253906 189.371094 214.113281 C 186.738281 208.4375 185.90625 206.929688 184.445313 203.339844 C 181.027344 196.84375 185.511719 195.570313 187.140625 192.234375 C 193.773438 181.441406 202.890625 176.144531 214.066406 175.402344 C 227.066406 175.925781 237.828125 182.101563 245.703125 195.597656 C 248.289063 199.601563 245.558594 201.734375 244.699219 204.011719 L 239.648438 213.101563 C 237.269531 218.632813 242.46875 222.347656 247.054688 216.46875 L 255.804688 204.351563 C 257.445313 200.3125 257.152344 196.273438 254.796875 192.234375 L 235.273438 158.910156 C 250.816406 154.640625 267.117188 160.015625 289.945313 187.160156 C 294.460938 196.074219 294.074219 207.769531 288.121094 229.257813 C 286.269531 233.960938 283.324219 235.066406 280.621094 236.171875 C 273.507813 239.585938 255.929688 236.910156 254.460938 247.433594 L 237.628906 330.238281 L 194.203125 330.914063 L 176.03125 248.78125 C 173.640625 234.925781 159.570313 237.699219 149.320313 235.964844 C 144.804688 235.421875 143.4375 232.722656 142.371094 229.59375 C 137.960938 215.996094 136.023438 197.699219 138.664063 189.539063 C 149.265625 170.695313 179.761719 153.191406 196.226563 158.570313 Z M 191.429688 244.683594 C 189.78125 246.011719 188.988281 247.597656 189.476563 249.566406 L 198.996094 274.230469 L 201.441406 252.496094 L 206.328125 261.289063 L 210.722656 249.078125 L 214.140625 258.359375 L 219.027344 249.8125 L 223.175781 260.066406 L 229.527344 251.277344 L 230.992188 271.546875 L 238.804688 253.472656 C 240.21875 250.179688 240.015625 247.425781 237.585938 245.414063 C 222.539063 236.726563 207.128906 237.089844 191.429688 244.683594 Z M 200.359375 319.015625 C 200.84375 321.976563 204.003906 319.097656 205.828125 318.773438 C 212.4375 317.304688 219.039063 317.324219 225.652344 318.773438 C 227.351563 319.382813 229.421875 322.179688 230.757813 318.773438 L 232.945313 304.183594 L 223.21875 312.085938 L 219.691406 305.640625 L 215.316406 311.84375 L 211.546875 305.277344 L 207.289063 312.328125 L 198.535156 303.332031 Z M 200.363281 196.230469 C 202.160156 195.078125 204.550781 195.601563 205.703125 197.394531 C 206.855469 199.191406 206.328125 201.578125 204.535156 202.734375 C 203.644531 203.308594 202.925781 203.980469 202.480469 204.691406 C 202.183594 205.164063 202.011719 205.648438 202.003906 206.113281 C 201.996094 206.570313 202.152344 207.09375 202.519531 207.664063 C 203.085938 208.539063 204.0625 209.464844 205.539063 210.390625 C 207.34375 211.519531 207.894531 213.894531 206.765625 215.699219 C 205.640625 217.503906 203.261719 218.050781 201.453125 216.921875 C 198.925781 215.335938 197.15625 213.609375 196.015625 211.835938 C 194.78125 209.914063 194.253906 207.933594 194.289063 205.992188 C 194.328125 204.054688 194.929688 202.234375 195.949219 200.605469 C 197.027344 198.882813 198.566406 197.386719 200.363281 196.230469 Z M 230.089844 196.230469 C 228.289063 195.078125 225.902344 195.601563 224.746094 197.394531 C 223.597656 199.191406 224.121094 201.578125 225.914063 202.734375 C 226.808594 203.308594 227.527344 203.980469 227.972656 204.691406 C 228.269531 205.164063 228.441406 205.648438 228.449219 206.113281 C 228.453125 206.570313 228.300781 207.09375 227.933594 207.664063 C 227.367188 208.539063 226.390625 209.464844 224.910156 210.390625 C 223.109375 211.519531 222.558594 213.894531 223.6875 215.699219 C 224.8125 217.503906 227.191406 218.050781 228.996094 216.921875 C 231.527344 215.335938 233.296875 213.609375 234.4375 211.835938 C 235.671875 209.914063 236.199219 207.933594 236.164063 205.992188 C 236.121094 204.054688 235.523438 202.234375 234.503906 200.605469 C 233.425781 198.882813 231.886719 197.386719 230.089844 196.230469 Z M 122.550781 50.632813 C 133.039063 36.226563 153.132813 31.074219 181.347656 31.109375 C 193.09375 31.109375 203.9375 29.3125 215.234375 36.492188 C 226.074219 29.078125 239.636719 30.523438 252.9375 31.109375 C 282.699219 32.257813 297.003906 40.28125 307.691406 50.855469 C 317.566406 43.898438 324.074219 33.574219 340.007813 33.351563 C 361.519531 34.195313 379.996094 47.519531 401.078125 66.976563 C 409.128906 78.996094 414.992188 136.03125 400.597656 142.191406 C 397.050781 144.371094 406.121094 150.183594 409.195313 155.421875 C 425.175781 173.40625 402.273438 161.3125 405.984375 179.21875 L 409.800781 242.054688 C 411.601563 270.253906 398.171875 248.609375 394.316406 261.355469 L 353.921875 336.984375 C 341.523438 359.71875 341.3125 331.964844 325.871094 339.898438 L 273.804688 357.179688 C 269.824219 358.390625 266.121094 359.996094 263.257813 362.789063 L 256.527344 370.195313 L 229.371094 370.195313 L 215.453125 384.558594 L 200.648438 370.195313 L 175.511719 370.195313 L 165.640625 361.890625 C 162.738281 359.753906 158.6875 357.824219 153.746094 356.058594 L 100.335938 339.003906 C 91.964844 336.105469 85.996094 355.964844 76.769531 338.554688 L 38.351563 262.253906 C 33.707031 248.597656 30.238281 258.710938 25.597656 257.261719 C 22.132813 256.175781 21.378906 254.730469 21.566406 247.441406 L 24.457031 182.363281 C 26.390625 165.648438 6.105469 170.238281 19.320313 155.203125 L 30.992188 142.867188 C 23.1875 135.203125 18.226563 126.789063 19.996094 116.609375 L 24.035156 84.742188 C 24.957031 76.398438 26.585938 70.351563 30.765625 66.789063 C 52.457031 46.472656 72.210938 34.144531 89.113281 33.574219 C 101.199219 33.300781 112.261719 39.535156 122.550781 50.632813 Z M 122.550781 50.632813 "/>
</g>
<g clip-path="url(#clip2)" clip-rule="nonzero">
<path style="fill:none;stroke-width:5.669;stroke-linecap:butt;stroke-linejoin:miter;stroke:rgb(5.488586%,31.762695%,0.392151%);stroke-opacity:1;stroke-miterlimit:4;" d="M 1567.578125 320.4375 L 1012.109375 516.453125 C 865.546875 415.164063 746.5625 430.789063 658.125 576.375 L 323.710938 1260.554688 C 240.273438 1396.21875 81.25 1266.726563 86.328125 1534.8125 L 124.414063 2226.453125 C 0.46875 2328.09375 2.734375 2429.734375 113.554688 2531.414063 C 203.59375 2628.445313 61.679688 2682.390625 64.53125 2754.695313 C 80 3063.484375 108.046875 3279.617188 184.335938 3424.539063 C 332.695313 3658.367188 960.15625 4027.117188 1219.023438 3669.578125 C 1336.40625 3814.8125 1651.484375 3871.726563 2151.210938 3809.382813 C 2590.625 3868.328125 2882.460938 3829.109375 3059.6875 3680.476563 C 3289.960938 3855.984375 3467.1875 3811.023438 3691.40625 3734.96875 C 3906.09375 3656.21875 4065.546875 3526.257813 4160.390625 3336.296875 C 4183.515625 3140.515625 4295.859375 2827.234375 4132.539063 2596.765625 C 4296.210938 2544.65625 4353.242188 2284.03125 4165.195313 2237.351563 L 4203.28125 1491.257813 C 4212.03125 1377.46875 4118.164063 1336.84375 4018.164063 1327.898438 L 3615.15625 565.476563 C 3485.9375 339.539063 3371.09375 526.6875 3266.40625 495.984375 L 2738.398438 331.296875 L 2607.695313 211.53125 L 2362.65625 206.0625 L 2144.804688 4.578125 L 1954.21875 211.53125 L 1671.015625 211.53125 Z M 3883.984375 1590.28125 L 3481.640625 772.351563 C 3400.46875 600.4375 3436.953125 816.960938 3288.984375 762.859375 L 2598.242188 530.59375 L 2770.9375 899.773438 C 2933.359375 991.84375 3211.484375 994.890625 3300.898438 1143.914063 L 3615.9375 1746.023438 C 3651.5625 1831.296875 3719.21875 1734.96875 3706.757813 1798.835938 L 3562.890625 2430.125 C 3545.3125 2492.46875 3715.78125 2423.601563 3634.375 2513.523438 C 3435.976563 2683.796875 3225.9375 2845.359375 3009.101563 3001.804688 C 2934.140625 3065.007813 2846.484375 3069.421875 2747.109375 3019.65625 L 2139.726563 2710.007813 L 1496.601563 3031.609375 C 1436.796875 3058.757813 1389.21875 3053.289063 1347.734375 3031.609375 C 1110.390625 2875.515625 889.0625 2708.796875 692.734375 2525.4375 C 633.867188 2472.742188 655.390625 2424.734375 734.414063 2448.015625 L 593.828125 1812.390625 C 581.71875 1700.398438 658.28125 1836.414063 680.820313 1763.210938 L 1044.0625 1054.578125 L 1520.390625 917.625 L 1710.351563 514.8125 L 1044.0625 756.84375 C 934.140625 796.101563 894.921875 746.6875 859.804688 700.046875 L 418.789063 1590.515625 L 306.5625 1599.96875 L 383.085938 2370.59375 C 288.4375 2371.335938 259.101563 2409.109375 323.515625 2459.96875 L 895.195313 2954.148438 C 927.734375 2981.6875 940.898438 3009.773438 948.789063 3055.398438 C 966.601563 3260.554688 943.125 3395.632813 793.945313 3317.390625 L 555.78125 3097.078125 C 515.351563 3055.476563 510.351563 3004.382813 548.945313 2970.359375 C 624.492188 2905.789063 685.859375 2979.109375 621.210938 3013.71875 C 550.15625 3045.242188 883.59375 3272.664063 853.4375 3185.125 C 744.140625 3075.359375 758.710938 2953.601563 845.820313 3040.984375 C 883.984375 3074.148438 905.429688 2999.109375 823.710938 2966.0625 C 679.179688 2891.804688 541.289063 2788.09375 406.875 2668.328125 C 351.210938 2693.015625 307.890625 2736.101563 308.671875 2791.492188 L 359.21875 3263.796875 C 664.140625 3563.796875 914.023438 3743.289063 1222.695313 3365.046875 C 1304.0625 3430.554688 1364.921875 3514.03125 1466.835938 3561.53125 C 1628.554688 3607.78125 1794.296875 3613.601563 1961.09375 3609.1875 C 2064.140625 3609.8125 2093.945313 3580.828125 2092.03125 3525.828125 L 2147.421875 2960.125 L 2211.171875 3531.765625 C 2218.125 3586.140625 2238.476563 3602.078125 2276.640625 3597.273438 L 2826.367188 3569.734375 C 2914.882813 3527.976563 2984.492188 3456.609375 3045.664063 3394.890625 C 3109.882813 3325.828125 3180.898438 3560.59375 3402.148438 3573.445313 C 3580.546875 3577.195313 3758.945313 3448.289063 3937.34375 3269.851563 C 3975.9375 3159.109375 3980.390625 2976.609375 4001.992188 2829.890625 C 4002.34375 2741.335938 3931.015625 2709.148438 3890.390625 2656.414063 C 3750.546875 2780.046875 3602.96875 2895.90625 3445.859375 3002.3125 C 3383.867188 3047.234375 3522.03125 3013.71875 3528.789063 3064.8125 C 3525.234375 3142.234375 3433.515625 3170.28125 3466.09375 3192.117188 C 3526.953125 3225.203125 3594.765625 3148.71875 3650.039063 3093.523438 C 3751.757813 3009.1875 3572.265625 3005.046875 3670.46875 2957.703125 C 3714.960938 2935.085938 3729.492188 2944.8125 3758.984375 2975.984375 C 3794.140625 3014.304688 3780.234375 3058.914063 3723.671875 3108.992188 L 3512.695313 3302.3125 C 3427.773438 3366.414063 3373.671875 3353.835938 3365.078125 3262.78125 L 3348.554688 3061.335938 C 3347.96875 3003.171875 3372.734375 2961.414063 3414.023438 2930.359375 C 3622.03125 2787.507813 3823.203125 2622.039063 4015.195313 2427.117188 C 4067.8125 2365.945313 3931.328125 2421.882813 3943.4375 2332.195313 L 3980.46875 1666.960938 C 4006.40625 1483.289063 3940.195313 1732.546875 3883.984375 1590.28125 Z M 1899.140625 606.101563 L 2086.054688 606.101563 L 2151.445313 559.382813 L 2221.523438 615.476563 L 2399.0625 615.476563 L 2712.03125 1545.164063 C 2739.453125 1624.695313 2885.078125 1504.109375 2959.6875 1750.710938 L 3027.1875 2051.296875 C 3028.828125 2111.53125 3128.90625 2068.835938 3045.507813 2160.398438 C 2939.453125 2281.21875 2821.210938 2368.367188 2698.046875 2442.15625 C 2861.210938 2481.609375 2814.53125 2574.539063 2665.351563 2596.335938 C 2950.039063 2678.054688 3059.53125 2489.421875 3310.078125 2203.914063 C 3259.960938 2362.507813 3185.507813 2482.546875 3077.460938 2633.914063 C 3028.359375 2696.609375 2804.960938 2740.359375 2687.421875 2689.96875 L 2305.625 2530.945313 L 2244.882813 2633.71875 L 2744.765625 2881.335938 C 2846.71875 2933.757813 2947.8125 2940.164063 3025.078125 2876.648438 C 3208.203125 2676.21875 3466.289063 2595.125 3543.671875 2152.507813 C 3615.664063 1741.296875 3306.953125 1467.3125 3188.59375 1124.695313 L 2698.046875 975.203125 L 2487.8125 461.296875 L 2244.882813 465.945313 L 2142.109375 367.859375 L 2058.007813 470.632813 L 1810.390625 470.632813 L 1600.15625 970.515625 L 1114.296875 1124.695313 C 994.023438 1449.773438 722.96875 1726.804688 753.4375 2099.96875 C 781.796875 2510.398438 1235.742188 2911.84375 1394.609375 2923.367188 C 1563.398438 2926.84375 1825.976563 2718.171875 2048.671875 2624.382813 L 2001.953125 2521.609375 L 1665.585938 2675.789063 C 1541.015625 2729.65625 1416.40625 2717.195313 1291.835938 2671.101563 C 1236.328125 2653.367188 1049.882813 2375.476563 992.851563 2222.585938 C 1176.914063 2360.046875 1294.140625 2693.289063 1604.84375 2596.335938 C 1481.132813 2557.46875 1480.859375 2473.210938 1595.507813 2442.15625 C 1468.828125 2349.421875 1349.921875 2250.007813 1245.117188 2138.484375 C 1193.007813 2082.898438 1275.507813 2101.804688 1282.109375 2044.8125 L 1361.914063 1685.359375 C 1410.546875 1510.90625 1567.382813 1615.085938 1593.632813 1527.742188 Z M 1962.265625 2441.296875 L 1760.3125 2091.21875 C 1742.265625 2061.53125 1736.640625 2029.539063 1763.671875 1986.882813 L 1851.171875 1838.757813 C 1874.53125 1810.164063 1912.265625 1854.460938 1893.710938 1885.867188 C 1867.382813 1942.625 1859.0625 1957.703125 1844.453125 1993.601563 C 1810.273438 2058.5625 1855.117188 2071.296875 1871.40625 2104.65625 C 1937.734375 2212.585938 2028.90625 2265.554688 2140.664063 2272.976563 C 2270.664063 2267.742188 2378.28125 2205.984375 2457.03125 2071.023438 C 2482.890625 2030.984375 2455.585938 2009.65625 2446.992188 1986.882813 L 2396.484375 1895.984375 C 2372.695313 1840.671875 2424.6875 1803.523438 2470.546875 1862.3125 L 2558.046875 1983.484375 C 2574.453125 2023.875 2571.523438 2064.265625 2547.96875 2104.65625 L 2352.734375 2437.898438 C 2508.164063 2480.59375 2671.171875 2426.84375 2899.453125 2155.398438 C 2944.609375 2066.257813 2940.742188 1949.304688 2881.210938 1734.421875 C 2862.695313 1687.390625 2833.242188 1676.335938 2806.210938 1665.28125 C 2735.078125 1631.140625 2559.296875 1657.898438 2544.609375 1552.664063 L 2376.289063 724.617188 L 1942.03125 717.859375 L 1760.3125 1539.1875 C 1736.40625 1677.742188 1595.703125 1650.007813 1493.203125 1667.351563 C 1448.046875 1672.78125 1434.375 1699.773438 1423.710938 1731.0625 C 1379.609375 1867.039063 1360.234375 2050.007813 1386.640625 2131.609375 C 1492.65625 2320.046875 1797.617188 2495.085938 1962.265625 2441.296875 Z M 1914.296875 1580.164063 C 1897.8125 1566.882813 1889.882813 1551.023438 1894.765625 1531.335938 L 1989.960938 1284.695313 L 2014.414063 1502.039063 L 2063.28125 1414.109375 L 2107.226563 1536.21875 L 2141.40625 1443.40625 L 2190.273438 1528.875 L 2231.757813 1426.335938 L 2295.273438 1514.226563 L 2309.921875 1311.53125 L 2388.046875 1492.273438 C 2402.1875 1525.203125 2400.15625 1552.742188 2375.859375 1572.859375 C 2225.390625 1659.734375 2071.289063 1656.101563 1914.296875 1580.164063 Z M 2003.59375 836.84375 C 2008.4375 807.234375 2040.039063 836.023438 2058.28125 839.265625 C 2124.375 853.953125 2190.390625 853.757813 2256.523438 839.265625 C 2273.515625 833.171875 2294.21875 805.203125 2307.578125 839.265625 L 2329.453125 985.164063 L 2232.1875 906.140625 L 2196.914063 970.59375 L 2153.164063 908.5625 L 2115.46875 974.226563 L 2072.890625 903.71875 L 1985.351563 993.679688 Z M 2003.632813 2064.695313 C 2021.601563 2076.21875 2045.507813 2070.984375 2057.03125 2053.054688 C 2068.554688 2035.085938 2063.28125 2011.21875 2045.351563 1999.65625 C 2036.445313 1993.914063 2029.257813 1987.195313 2024.804688 1980.085938 C 2021.835938 1975.359375 2020.117188 1970.515625 2020.039063 1965.867188 C 2019.960938 1961.296875 2021.523438 1956.0625 2025.195313 1950.359375 C 2030.859375 1941.609375 2040.625 1932.351563 2055.390625 1923.09375 C 2073.4375 1911.804688 2078.945313 1888.054688 2067.65625 1870.007813 C 2056.40625 1851.960938 2032.617188 1846.492188 2014.53125 1857.78125 C 1989.257813 1873.640625 1971.5625 1890.90625 1960.15625 1908.640625 C 1947.8125 1927.859375 1942.539063 1947.664063 1942.890625 1967.078125 C 1943.28125 1986.453125 1949.296875 2004.65625 1959.492188 2020.945313 C 1970.273438 2038.171875 1985.664063 2053.132813 2003.632813 2064.695313 Z M 2300.898438 2064.695313 C 2282.890625 2076.21875 2259.023438 2070.984375 2247.460938 2053.054688 C 2235.976563 2035.085938 2241.210938 2011.21875 2259.140625 1999.65625 C 2268.085938 1993.914063 2275.273438 1987.195313 2279.726563 1980.085938 C 2282.695313 1975.359375 2284.414063 1970.515625 2284.492188 1965.867188 C 2284.53125 1961.296875 2283.007813 1956.0625 2279.335938 1950.359375 C 2273.671875 1941.609375 2263.90625 1932.351563 2249.101563 1923.09375 C 2231.09375 1911.804688 2225.585938 1888.054688 2236.875 1870.007813 C 2248.125 1851.960938 2271.914063 1846.492188 2289.960938 1857.78125 C 2315.273438 1873.640625 2332.96875 1890.90625 2344.375 1908.640625 C 2356.71875 1927.859375 2361.992188 1947.664063 2361.640625 1967.078125 C 2361.210938 1986.453125 2355.234375 2004.65625 2345.039063 2020.945313 C 2334.257813 2038.171875 2318.867188 2053.132813 2300.898438 2064.695313 Z M 1225.507813 3520.671875 C 1330.390625 3664.734375 1531.328125 3716.257813 1813.476563 3715.90625 C 1930.9375 3715.90625 2039.375 3733.875 2152.34375 3662.078125 C 2260.742188 3736.21875 2396.367188 3721.765625 2529.375 3715.90625 C 2826.992188 3704.421875 2970.039063 3624.1875 3076.914063 3518.445313 C 3175.664063 3588.015625 3240.742188 3691.257813 3400.078125 3693.484375 C 3615.195313 3685.046875 3799.960938 3551.804688 4010.78125 3357.234375 C 4091.289063 3237.039063 4149.921875 2666.6875 4005.976563 2605.085938 C 3970.507813 2583.289063 4061.210938 2525.164063 4091.953125 2472.78125 C 4251.757813 2292.9375 4022.734375 2413.875 4059.84375 2234.8125 L 4098.007813 1606.453125 C 4116.015625 1324.460938 3981.71875 1540.90625 3943.164063 1413.445313 L 3539.21875 657.15625 C 3415.234375 429.8125 3413.125 707.351563 3258.710938 628.015625 L 2738.046875 455.203125 C 2698.242188 443.09375 2661.210938 427.039063 2632.578125 399.109375 L 2565.273438 325.046875 L 2293.710938 325.046875 L 2154.53125 181.414063 L 2006.484375 325.046875 L 1755.117188 325.046875 L 1656.40625 408.09375 C 1627.382813 429.460938 1586.875 448.757813 1537.460938 466.414063 L 1003.359375 636.960938 C 919.648438 665.945313 859.960938 467.351563 767.695313 641.453125 L 383.515625 1404.460938 C 337.070313 1541.023438 302.382813 1439.890625 255.976563 1454.382813 C 221.328125 1465.242188 213.789063 1479.695313 215.664063 1552.585938 L 244.570313 2203.367188 C 263.90625 2370.515625 61.054688 2324.617188 193.203125 2474.96875 L 309.921875 2598.328125 C 231.875 2674.96875 182.265625 2759.109375 199.960938 2860.90625 L 240.351563 3179.578125 C 249.570313 3263.015625 265.859375 3323.484375 307.65625 3359.109375 C 524.570313 3562.273438 722.109375 3685.554688 891.132813 3691.257813 C 1011.992188 3693.992188 1122.617188 3631.648438 1225.507813 3520.671875 Z M 1225.507813 3520.671875 " transform="matrix(0.1,0,0,-0.1,0,402.7)"/>
</g>
</g>
</svg>
